<mxfile host="app.diagrams.net" modified="2022-06-25T10:57:04.445Z" agent="5.0 (Macintosh; Intel Mac OS X 10_15_7) AppleWebKit/605.1.15 (KHTML, like Gecko) Version/15.5 Safari/605.1.15" etag="J9ijRmA8SEcV5uCVfo9D" version="20.0.1" type="github">
  <diagram id="C5RBs43oDa-KdzZeNtuy" name="Page-1">
    <mxGraphModel dx="786" dy="457" grid="1" gridSize="10" guides="1" tooltips="1" connect="1" arrows="1" fold="1" page="1" pageScale="1" pageWidth="827" pageHeight="1169" math="0" shadow="0">
      <root>
        <mxCell id="WIyWlLk6GJQsqaUBKTNV-0" />
        <mxCell id="WIyWlLk6GJQsqaUBKTNV-1" parent="WIyWlLk6GJQsqaUBKTNV-0" />
        <mxCell id="anCv72j7XSeQpfh3ttz9-2" value="" style="edgeStyle=orthogonalEdgeStyle;rounded=0;orthogonalLoop=1;jettySize=auto;html=1;" edge="1" parent="WIyWlLk6GJQsqaUBKTNV-1" source="anCv72j7XSeQpfh3ttz9-0" target="anCv72j7XSeQpfh3ttz9-1">
          <mxGeometry relative="1" as="geometry" />
        </mxCell>
        <mxCell id="anCv72j7XSeQpfh3ttz9-0" value="Start" style="ellipse;whiteSpace=wrap;html=1;" vertex="1" parent="WIyWlLk6GJQsqaUBKTNV-1">
          <mxGeometry x="340" y="70" width="120" height="40" as="geometry" />
        </mxCell>
        <mxCell id="anCv72j7XSeQpfh3ttz9-4" value="" style="edgeStyle=orthogonalEdgeStyle;rounded=0;orthogonalLoop=1;jettySize=auto;html=1;" edge="1" parent="WIyWlLk6GJQsqaUBKTNV-1" source="anCv72j7XSeQpfh3ttz9-1" target="anCv72j7XSeQpfh3ttz9-3">
          <mxGeometry relative="1" as="geometry" />
        </mxCell>
        <mxCell id="anCv72j7XSeQpfh3ttz9-1" value="numbers [1, 8, 3, 8, 2, 6, 8, 8 ]" style="shape=parallelogram;perimeter=parallelogramPerimeter;whiteSpace=wrap;html=1;fixedSize=1;" vertex="1" parent="WIyWlLk6GJQsqaUBKTNV-1">
          <mxGeometry x="305" y="130" width="190" height="30" as="geometry" />
        </mxCell>
        <mxCell id="anCv72j7XSeQpfh3ttz9-6" value="" style="edgeStyle=orthogonalEdgeStyle;rounded=0;orthogonalLoop=1;jettySize=auto;html=1;" edge="1" parent="WIyWlLk6GJQsqaUBKTNV-1" source="anCv72j7XSeQpfh3ttz9-3" target="anCv72j7XSeQpfh3ttz9-5">
          <mxGeometry relative="1" as="geometry" />
        </mxCell>
        <mxCell id="anCv72j7XSeQpfh3ttz9-3" value="index = 0&lt;br&gt;maximum = numbers[index]&lt;br&gt;count_maximal = 0" style="whiteSpace=wrap;html=1;" vertex="1" parent="WIyWlLk6GJQsqaUBKTNV-1">
          <mxGeometry x="320" y="190" width="160" height="60" as="geometry" />
        </mxCell>
        <mxCell id="anCv72j7XSeQpfh3ttz9-8" value="" style="edgeStyle=orthogonalEdgeStyle;rounded=0;orthogonalLoop=1;jettySize=auto;html=1;" edge="1" parent="WIyWlLk6GJQsqaUBKTNV-1" source="anCv72j7XSeQpfh3ttz9-5" target="anCv72j7XSeQpfh3ttz9-7">
          <mxGeometry relative="1" as="geometry" />
        </mxCell>
        <mxCell id="anCv72j7XSeQpfh3ttz9-25" value="" style="edgeStyle=orthogonalEdgeStyle;rounded=0;orthogonalLoop=1;jettySize=auto;html=1;" edge="1" parent="WIyWlLk6GJQsqaUBKTNV-1" source="anCv72j7XSeQpfh3ttz9-5" target="anCv72j7XSeQpfh3ttz9-24">
          <mxGeometry relative="1" as="geometry" />
        </mxCell>
        <mxCell id="anCv72j7XSeQpfh3ttz9-5" value="index &amp;lt; numbers.length" style="rhombus;whiteSpace=wrap;html=1;" vertex="1" parent="WIyWlLk6GJQsqaUBKTNV-1">
          <mxGeometry x="305" y="280" width="190" height="80" as="geometry" />
        </mxCell>
        <mxCell id="anCv72j7XSeQpfh3ttz9-11" value="" style="edgeStyle=orthogonalEdgeStyle;rounded=0;orthogonalLoop=1;jettySize=auto;html=1;" edge="1" parent="WIyWlLk6GJQsqaUBKTNV-1" source="anCv72j7XSeQpfh3ttz9-7" target="anCv72j7XSeQpfh3ttz9-10">
          <mxGeometry relative="1" as="geometry" />
        </mxCell>
        <mxCell id="anCv72j7XSeQpfh3ttz9-14" value="" style="edgeStyle=orthogonalEdgeStyle;rounded=0;orthogonalLoop=1;jettySize=auto;html=1;" edge="1" parent="WIyWlLk6GJQsqaUBKTNV-1" source="anCv72j7XSeQpfh3ttz9-7" target="anCv72j7XSeQpfh3ttz9-13">
          <mxGeometry relative="1" as="geometry" />
        </mxCell>
        <mxCell id="anCv72j7XSeQpfh3ttz9-7" value="number[index] &amp;gt; maximum" style="rhombus;whiteSpace=wrap;html=1;" vertex="1" parent="WIyWlLk6GJQsqaUBKTNV-1">
          <mxGeometry x="305" y="390" width="190" height="80" as="geometry" />
        </mxCell>
        <mxCell id="anCv72j7XSeQpfh3ttz9-9" value="Yes" style="text;html=1;align=center;verticalAlign=middle;resizable=0;points=[];autosize=1;strokeColor=none;fillColor=none;" vertex="1" parent="WIyWlLk6GJQsqaUBKTNV-1">
          <mxGeometry x="400" y="360" width="40" height="20" as="geometry" />
        </mxCell>
        <mxCell id="anCv72j7XSeQpfh3ttz9-20" value="" style="edgeStyle=orthogonalEdgeStyle;rounded=0;orthogonalLoop=1;jettySize=auto;html=1;" edge="1" parent="WIyWlLk6GJQsqaUBKTNV-1" source="anCv72j7XSeQpfh3ttz9-10" target="anCv72j7XSeQpfh3ttz9-19">
          <mxGeometry relative="1" as="geometry">
            <Array as="points">
              <mxPoint x="40" y="575" />
              <mxPoint x="40" y="320" />
            </Array>
          </mxGeometry>
        </mxCell>
        <mxCell id="anCv72j7XSeQpfh3ttz9-10" value="maximum = numbers[index]&lt;br&gt;count_maximal = 1" style="whiteSpace=wrap;html=1;" vertex="1" parent="WIyWlLk6GJQsqaUBKTNV-1">
          <mxGeometry x="320" y="550" width="160" height="50" as="geometry" />
        </mxCell>
        <mxCell id="anCv72j7XSeQpfh3ttz9-12" value="Yes" style="text;html=1;align=center;verticalAlign=middle;resizable=0;points=[];autosize=1;strokeColor=none;fillColor=none;" vertex="1" parent="WIyWlLk6GJQsqaUBKTNV-1">
          <mxGeometry x="400" y="470" width="40" height="20" as="geometry" />
        </mxCell>
        <mxCell id="anCv72j7XSeQpfh3ttz9-16" value="" style="edgeStyle=orthogonalEdgeStyle;rounded=0;orthogonalLoop=1;jettySize=auto;html=1;" edge="1" parent="WIyWlLk6GJQsqaUBKTNV-1" source="anCv72j7XSeQpfh3ttz9-13" target="anCv72j7XSeQpfh3ttz9-15">
          <mxGeometry relative="1" as="geometry" />
        </mxCell>
        <mxCell id="anCv72j7XSeQpfh3ttz9-32" value="" style="edgeStyle=orthogonalEdgeStyle;rounded=0;orthogonalLoop=1;jettySize=auto;html=1;entryX=0;entryY=0.5;entryDx=0;entryDy=0;" edge="1" parent="WIyWlLk6GJQsqaUBKTNV-1" source="anCv72j7XSeQpfh3ttz9-13" target="anCv72j7XSeQpfh3ttz9-19">
          <mxGeometry relative="1" as="geometry">
            <mxPoint x="-5" y="430" as="targetPoint" />
            <Array as="points">
              <mxPoint x="40" y="430" />
              <mxPoint x="40" y="320" />
            </Array>
          </mxGeometry>
        </mxCell>
        <mxCell id="anCv72j7XSeQpfh3ttz9-13" value="number[index] == maximum" style="rhombus;whiteSpace=wrap;html=1;" vertex="1" parent="WIyWlLk6GJQsqaUBKTNV-1">
          <mxGeometry x="100" y="390" width="170" height="80" as="geometry" />
        </mxCell>
        <mxCell id="anCv72j7XSeQpfh3ttz9-22" value="" style="edgeStyle=orthogonalEdgeStyle;rounded=0;orthogonalLoop=1;jettySize=auto;html=1;entryX=0;entryY=0.5;entryDx=0;entryDy=0;" edge="1" parent="WIyWlLk6GJQsqaUBKTNV-1" source="anCv72j7XSeQpfh3ttz9-15" target="anCv72j7XSeQpfh3ttz9-19">
          <mxGeometry relative="1" as="geometry">
            <mxPoint x="-60" y="480" as="targetPoint" />
            <Array as="points">
              <mxPoint x="40" y="520" />
              <mxPoint x="40" y="320" />
            </Array>
          </mxGeometry>
        </mxCell>
        <mxCell id="anCv72j7XSeQpfh3ttz9-15" value="count_maximal = count_maximal +1" style="whiteSpace=wrap;html=1;" vertex="1" parent="WIyWlLk6GJQsqaUBKTNV-1">
          <mxGeometry x="80" y="490" width="210" height="60" as="geometry" />
        </mxCell>
        <mxCell id="anCv72j7XSeQpfh3ttz9-17" value="No" style="text;html=1;align=center;verticalAlign=middle;resizable=0;points=[];autosize=1;strokeColor=none;fillColor=none;" vertex="1" parent="WIyWlLk6GJQsqaUBKTNV-1">
          <mxGeometry x="275" y="410" width="30" height="20" as="geometry" />
        </mxCell>
        <mxCell id="anCv72j7XSeQpfh3ttz9-23" value="" style="edgeStyle=orthogonalEdgeStyle;rounded=0;orthogonalLoop=1;jettySize=auto;html=1;" edge="1" parent="WIyWlLk6GJQsqaUBKTNV-1" source="anCv72j7XSeQpfh3ttz9-19" target="anCv72j7XSeQpfh3ttz9-5">
          <mxGeometry relative="1" as="geometry" />
        </mxCell>
        <mxCell id="anCv72j7XSeQpfh3ttz9-19" value="index = &amp;nbsp;index +1" style="whiteSpace=wrap;html=1;" vertex="1" parent="WIyWlLk6GJQsqaUBKTNV-1">
          <mxGeometry x="120" y="290" width="120" height="60" as="geometry" />
        </mxCell>
        <mxCell id="anCv72j7XSeQpfh3ttz9-27" value="" style="edgeStyle=orthogonalEdgeStyle;rounded=0;orthogonalLoop=1;jettySize=auto;html=1;" edge="1" parent="WIyWlLk6GJQsqaUBKTNV-1" source="anCv72j7XSeQpfh3ttz9-24" target="anCv72j7XSeQpfh3ttz9-26">
          <mxGeometry relative="1" as="geometry" />
        </mxCell>
        <mxCell id="anCv72j7XSeQpfh3ttz9-24" value="count_maximal" style="shape=document;whiteSpace=wrap;html=1;boundedLbl=1;" vertex="1" parent="WIyWlLk6GJQsqaUBKTNV-1">
          <mxGeometry x="560" y="280" width="120" height="80" as="geometry" />
        </mxCell>
        <mxCell id="anCv72j7XSeQpfh3ttz9-26" value="End" style="ellipse;whiteSpace=wrap;html=1;" vertex="1" parent="WIyWlLk6GJQsqaUBKTNV-1">
          <mxGeometry x="560" y="390" width="120" height="60" as="geometry" />
        </mxCell>
        <mxCell id="anCv72j7XSeQpfh3ttz9-28" value="Количество максимальных значений в массиве" style="text;html=1;align=center;verticalAlign=middle;resizable=0;points=[];autosize=1;strokeColor=none;fillColor=none;" vertex="1" parent="WIyWlLk6GJQsqaUBKTNV-1">
          <mxGeometry x="255" y="30" width="290" height="20" as="geometry" />
        </mxCell>
        <mxCell id="anCv72j7XSeQpfh3ttz9-29" value="No" style="text;html=1;align=center;verticalAlign=middle;resizable=0;points=[];autosize=1;strokeColor=none;fillColor=none;" vertex="1" parent="WIyWlLk6GJQsqaUBKTNV-1">
          <mxGeometry x="495" y="300" width="30" height="20" as="geometry" />
        </mxCell>
        <mxCell id="anCv72j7XSeQpfh3ttz9-33" value="No" style="text;html=1;align=center;verticalAlign=middle;resizable=0;points=[];autosize=1;strokeColor=none;fillColor=none;" vertex="1" parent="WIyWlLk6GJQsqaUBKTNV-1">
          <mxGeometry x="70" y="410" width="30" height="20" as="geometry" />
        </mxCell>
        <mxCell id="anCv72j7XSeQpfh3ttz9-34" value="Yes" style="text;html=1;align=center;verticalAlign=middle;resizable=0;points=[];autosize=1;strokeColor=none;fillColor=none;" vertex="1" parent="WIyWlLk6GJQsqaUBKTNV-1">
          <mxGeometry x="180" y="470" width="40" height="20" as="geometry" />
        </mxCell>
      </root>
    </mxGraphModel>
  </diagram>
</mxfile>
